<?xml version="1.0" encoding="UTF-8"?><svg id="a" xmlns="http://www.w3.org/2000/svg" width="4.15cm" height="5.64cm" xmlns:xlink="http://www.w3.org/1999/xlink" viewBox="0 0 117.68 159.88"><defs><style>.c{clip-path:url(#b);}.d{fill:#14ff28;}</style><clipPath id="b"><rect class="d" x=".04" y="48.77" width="117.56" height="5.38"/></clipPath></defs><rect class="d" x="117.6" width=".08" height="44.09"/><path class="d" d="M107.22,13.61c0,3.15-.93,4.72-2.8,4.72h-.62v-9.54h.62c1.86.02,2.8,1.63,2.8,4.81h0Z"/><rect class="d" x=".04" y="48.77" width="117.56" height="5.38"/><g class="c"><path class="d" d="M.04,48.77h117.57v5.38H.04v-5.38Z"/></g><path class="d" d="M.04,0v44.09h117.56V0H.04ZM17.29,38.34c-1.43,1.72-3.5,2.58-6.24,2.58-3.01,0-5.23-1.05-6.65-3.15-1.42-2.1-2.15-5.32-2.19-9.65h6.63c0,1.76.1,3.11.28,4.09s.41,1.62.7,1.91.63.45,1.07.45c1.1,0,1.64-1.16,1.66-3.47,0-1.5-.28-2.78-.85-3.83-.58-1.06-1.63-2.31-3.17-3.78-2.19-2.09-3.76-4.09-4.67-5.99-.91-1.89-1.37-4.15-1.37-6.76,0-2.83.7-5.01,2.11-6.55,1.41-1.54,3.42-2.31,6.01-2.31,5.54,0,8.36,3.85,8.47,11.54h-6.58c-.04-3.46-.63-5.17-1.77-5.15-.92,0-1.37.76-1.37,2.31s.29,2.73.88,3.8c.58,1.07,1.63,2.33,3.18,3.8,2.2,2.07,3.76,4.04,4.67,5.94s1.36,4.17,1.36,6.82c0,3.22-.71,5.69-2.15,7.4h0ZM38.51,8.79h-5.3v31.59h-7.1V8.79h-5.26V2.43h17.65s0,6.36,0,6.36ZM45.2,40.38L39.94,2.43h7.15l2.15,24.2h.16l2.15-24.2h6.72l-5.3,37.95h-7.77ZM70,40.38l-.7-6.15h-4.41l-.72,6.15h-6.63L63.2,2.43h8.25l5.62,37.95h-7.08ZM94.44,8.79h-8.17v8.27h7.07v6.31h-7.07v10.62h8.17v6.39h-15.26V2.43h15.26s0,6.36,0,6.36ZM108.45,40.38l-3.24-15.69h-1.4v15.69h-7.1V2.43h7.66c3.34,0,5.86.95,7.6,2.84,1.72,1.89,2.58,4.67,2.58,8.34,0,3.99-1.03,6.9-3.08,8.72l4.19,18.05h-7.21Z"/><polygon class="d" points="68.62 28.57 65.56 28.57 66.98 12.4 67.14 12.4 68.62 28.57"/><path class="d" d="M27.7,105.94l11.81-46.71h6.9l-11.77,46.71h-6.93Z"/><path class="d" d="M69.38,92.5c0,2.62-.52,4.79-1.55,6.51-1.03,1.73-2.52,2.9-4.44,3.53v4.66h-7.21v-4.78c-3.99-1.46-5.99-5.78-5.99-12.96h7.24c0,2.58.2,4.32.59,5.23.4.91,1.03,1.36,1.9,1.36,1.24,0,1.85-1.12,1.85-3.37,0-1.58-.31-2.91-.93-3.98s-1.78-2.34-3.48-3.8c-2.54-2.11-4.32-4.16-5.34-6.16-1.02-2-1.53-4.38-1.53-7.16,0-2.21.49-4.08,1.47-5.61.98-1.53,2.39-2.59,4.21-3.18v-4.8h7.21v4.99c3.61,1.46,5.49,5.33,5.63,11.59h-7.24c-.04-3.53-.73-5.29-2.06-5.29-1.12,0-1.67.71-1.67,2.13,0,1.62.31,2.97.94,4.05.63,1.08,1.79,2.34,3.49,3.8,2.53,2.11,4.32,4.16,5.36,6.16,1.03,1.99,1.55,4.36,1.55,7.1Z"/><path class="d" d="M73.09,105.94l11.81-46.71h6.9l-11.77,46.71h-6.93Z"/><path class="d" d="M0,111.15v48.73h117.64v-48.73H0ZM13.81,155.88c-.88.85-1.94,1.28-3.19,1.28-1.31,0-2.39-.43-3.25-1.28-.86-.85-1.29-1.92-1.29-3.22s.43-2.37,1.3-3.24,1.96-1.31,3.25-1.31,2.37.44,3.22,1.31c.85.87,1.28,1.95,1.28,3.24s-.44,2.37-1.32,3.22ZM26.41,156.56h-8.69v-41.95h8.46c7.3,0,10.95,3.56,10.95,10.69,0,4.61-1.62,7.59-4.86,8.94v.21c3.64,1.34,5.46,4.68,5.46,10,0,8.08-3.77,12.11-11.32,12.11ZM52.71,156.56l-.76-6.8h-4.87l-.8,6.8h-7.34l6.27-41.95h9.11l6.2,41.95h-7.81ZM82.52,156.56h-6.83l-5.82-23.03h-.12v23.03h-6.89v-41.95h7.31l5.34,20.96h.12v-20.96h6.89v41.95ZM97.96,156.56l-4.19-18.61h-.15v18.61h-7.83v-41.95h7.83v17.75h.15l4.07-17.75h7.48l-4.75,19.45,5.53,22.5h-8.14Z"/><path class="d" d="M25.55,121.65h.45c1.13,0,1.92.35,2.39,1.04.46.7.7,1.87.7,3.54,0,1.82-.28,3.12-.85,3.89-.56.77-1.43,1.16-2.59,1.16h-.09v-9.62ZM28.88,148.3c-.52.8-1.4,1.2-2.64,1.2h-.68v-11.22h.09c1.52,0,2.57.4,3.14,1.2.57.8.86,2.27.86,4.43s-.26,3.58-.77,4.38Z"/><polygon class="d" points="51.2 143.5 47.82 143.5 49.39 125.63 49.57 125.63 51.2 143.5"/></svg>