<?xml version="1.0" encoding="UTF-8"?><svg id="a" xmlns="http://www.w3.org/2000/svg" width="6.3cm" height="10cm" viewBox="0 0 178.59 283.46"><defs><style>.b{fill:#69b42d;}</style></defs><path class="b" d="M0,0v283.46h178.59V0H0ZM128.23,247.99l-.06-.06c-8.97,10.81-21.98,16.21-39.11,16.21-18.84,0-32.78-6.57-41.68-19.77-8.9-13.2-13.5-33.33-13.75-60.53h41.56c0,11.05.61,19.52,1.78,25.66s2.58,10.13,4.36,11.97c1.78,1.85,3.93,2.83,6.69,2.83,6.88,0,10.31-7.25,10.44-21.73,0-9.4-1.78-17.44-5.34-24.01-3.63-6.63-10.19-14.48-19.89-23.69-13.75-13.14-23.58-25.66-29.29-37.57-5.7-11.85-8.59-26.03-8.59-42.42,0-17.74,4.42-31.43,13.26-41.07,8.84-9.63,21.42-14.48,37.69-14.48,34.75,0,52.43,24.12,53.1,72.37h-41.25c-.25-21.67-3.93-32.41-11.11-32.29-5.77,0-8.6,4.79-8.6,14.49s1.85,17.13,5.53,23.82c3.62,6.69,10.25,14.61,19.95,23.82,13.81,12.95,23.57,25.35,29.28,37.26,5.71,11.91,8.53,26.15,8.53,42.78,0,20.2-4.48,35.67-13.5,46.41Z"/></svg>